<svg id="Layer_1" data-name="Layer 1" xmlns="http://www.w3.org/2000/svg" viewBox="0 0 385.64 435.79"><defs><style>.cls-1{fill:#231f20;}</style></defs><title>Logo</title><path class="cls-1" d="M363.67,52.07C186.27,156.24,15.35,117,15.35,117s184.79,9,300.9-61.85c0,0-223.6-24.31-157.74,338.63,0,0-100.24-281.48,103.92-352,46.64-16.12,101.24,10.33,101.24,10.33"/><path class="cls-1" d="M137.75,390.94s20.15-103.82,31.16-138.58c.54-1.69,5-3.59,6.51-2.8,4.48,2.4,11.66,11.2,11.66,13.89,0,9.6-2.56,66.15,2.73,78.5,1.36,3.18,31.14-95.3,35.69-106,.48-1.14,3.32-1.72,4.51-2.05,1.72-.48,10.6,10.41,9.9,14.74-4,24.76-23,99.28-14.69,142.18.72,3.7-5.26-2.79-7.6-13.86-5.36-25.42,3.58-74.57,3.29-91,0-.65-1.82-.76-2.06-.16-7.58,18.51-18.37,78.6-28,90.36-2.37,2.9-12-8.12-14-13.4C175,358,173,310.17,172.66,295.64c0-1-2.15-1.11-2.25-.16C168.37,314,137.75,390.94,137.75,390.94Z"/></svg>