<?xml version="1.0" encoding="utf-8"?>
<!-- Generator: Adobe Illustrator 20.0.0, SVG Export Plug-In . SVG Version: 6.00 Build 0)  -->
<svg version="1.1" id="Layer_1" xmlns="http://www.w3.org/2000/svg" xmlns:xlink="http://www.w3.org/1999/xlink" x="0px" y="0px"
	 viewBox="0 0 483.6 417" style="enable-background:new 0 0 483.6 417;" xml:space="preserve">
<style type="text/css">
	.st0{clip-path:url(#SVGID_2_);}
	.st1{fill:#FFFFFF;}
	.st2{fill:url(#SVGID_3_);}
	.st3{fill:url(#SVGID_4_);}
	.st4{fill:url(#SVGID_5_);}
	.st5{fill:#ACADB1;}
</style>
<title>desktop</title>
<g>
	<defs>
		<path id="SVGID_1_" d="M-332.4,320.4l-4.5,36.5c0,0-12,1.5-17.2,3.1c-6.6,2,4.9,3.4,11.9,3.2c29.6-0.7,88,0,117.6-0.7
			c3-0.1,4.5-2,3.3-2.7c-2.6-1.5-16.7-2.3-17.5-3.4c-3-3.9-5.2-36.1-5.2-36.1h141.5c5.6,0,10.1-4.6,10.2-10.2V47
			c0-5.6-4.5-10.2-10.2-10.2l-369.9,1c-5.6,0-11,3.6-11,9.2v263.3c0,5.6,4.6,10.1,10.2,10.2H-332.4z"/>
	</defs>
	<clipPath id="SVGID_2_">
		<use xlink:href="#SVGID_1_"  style="overflow:visible;"/>
	</clipPath>
	<g class="st0">
		
			<image style="overflow:visible;enable-background:new    ;" width="1920" height="1080" xlink:href="../../../../Project/10 min presentation of Final Presentation v3/10 min presentation of Final Presentation v3.001.png"  transform="matrix(0.35 0 0 0.35 -620.5076 10.1306)">
		</image>
	</g>
</g>
<rect x="-467.1" y="53.9" class="st1" width="366.4" height="208.4"/>
<linearGradient id="SVGID_3_" gradientUnits="userSpaceOnUse" x1="83.5506" y1="330.2575" x2="400.0294" y2="13.7786">
	<stop  offset="0.6383" style="stop-color:#141414"/>
	<stop  offset="0.8309" style="stop-color:#C8C8C8"/>
	<stop  offset="1" style="stop-color:#000000"/>
</linearGradient>
<path class="st2" d="M436.9,293.4H46.7V53.6c0-3.9,3.1-7,7-7h376.3c3.9,0,7,3.1,7,7V293.4z"/>
<linearGradient id="SVGID_4_" gradientUnits="userSpaceOnUse" x1="136.3006" y1="414.7016" x2="347.2794" y2="203.7227">
	<stop  offset="0.4164" style="stop-color:#888888"/>
	<stop  offset="0.8213" style="stop-color:#C8C8C8"/>
</linearGradient>
<path class="st3" d="M436.9,293.4H46.7v28.8c0,3.9,3.1,7,7,7h376.3c3.9,0,7-3.1,7-7V293.4z"/>
<linearGradient id="SVGID_5_" gradientUnits="userSpaceOnUse" x1="242.6688" y1="327.5257" x2="242.6688" y2="364.7395">
	<stop  offset="0.4282" style="stop-color:#888888"/>
	<stop  offset="0.6824" style="stop-color:#A5A5A5"/>
	<stop  offset="0.9526" style="stop-color:#C8C8C8"/>
</linearGradient>
<polygon class="st4" points="199.2,329.2 194.5,364.7 290.9,363.6 285.7,327.5 "/>
<path class="st5" d="M299.3,369.4H185.7c-1.4,0-2.5-1.1-2.5-2.5v-1.2c0-1.4,1.1-2.5,2.5-2.5h113.7c1.4,0,2.5,1.1,2.5,2.5v1.2
	C301.8,368.3,300.7,369.4,299.3,369.4z"/>
<rect x="61.5" y="61.1" class="st1" width="362.3" height="205.7"/>
</svg>
