<svg id="Layer_1" data-name="Layer 1" xmlns="http://www.w3.org/2000/svg" xmlns:xlink="http://www.w3.org/1999/xlink" viewBox="0 0 483.58 416.95"><defs><style>.cls-1{fill:none;}.cls-2{clip-path:url(#clip-path);}.cls-3{isolation:isolate;}.cls-4{fill:url(#linear-gradient);}.cls-5{fill:url(#linear-gradient-2);}.cls-6{fill:url(#linear-gradient-3);}.cls-7{fill:#acadb1;}.cls-8{fill:#fff;}</style><clipPath id="clip-path"><path class="cls-1" d="M-332.44,320.39l-4.46,36.49s-12,1.53-17.21,3.1c-6.57,2,4.94,3.42,11.88,3.25,29.62-.73,88,0,117.59-.69,3-.07,4.47-2,3.33-2.68-2.64-1.49-16.66-2.3-17.49-3.38-3-3.86-5.19-36.09-5.19-36.09h141.48a10.19,10.19,0,0,0,10.16-10.16V47a10.19,10.19,0,0,0-10.16-10.18l-369.91,1c-5.59,0-11,3.57-11,9.15V310.23a10.19,10.19,0,0,0,10.16,10.16Z"/></clipPath><linearGradient id="linear-gradient" x1="83.55" y1="330.26" x2="400.03" y2="13.78" gradientUnits="userSpaceOnUse"><stop offset="0.64" stop-color="#141414"/><stop offset="0.83" stop-color="#c8c8c8"/><stop offset="1"/></linearGradient><linearGradient id="linear-gradient-2" x1="136.3" y1="414.7" x2="347.28" y2="203.72" gradientUnits="userSpaceOnUse"><stop offset="0.42" stop-color="#888"/><stop offset="0.82" stop-color="#c8c8c8"/></linearGradient><linearGradient id="linear-gradient-3" x1="242.67" y1="327.53" x2="242.67" y2="364.74" gradientUnits="userSpaceOnUse"><stop offset="0.43" stop-color="#888"/><stop offset="0.68" stop-color="#a5a5a5"/><stop offset="0.95" stop-color="#c8c8c8"/></linearGradient></defs><title>desktop</title><g class="cls-2"><image class="cls-3" width="1920" height="1080" transform="translate(-620.51 10.13) scale(0.35)" xlink:href="../../../../Project/10 min presentation of Final Presentation v3/10 min presentation of Final Presentation v3.001.png"/></g><path class="cls-4" d="M53.66,46.57H429.92a7,7,0,0,1,7,7V293.37a0,0,0,0,1,0,0H46.66a0,0,0,0,1,0,0V53.57A7,7,0,0,1,53.66,46.57Z"/><path class="cls-5" d="M46.66,293.37H436.92a0,0,0,0,1,0,0v28.79a7,7,0,0,1-7,7H53.66a7,7,0,0,1-7-7V293.37A0,0,0,0,1,46.66,293.37Z"/><polygon class="cls-6" points="199.24 329.16 194.46 364.74 290.88 363.62 285.69 327.53 199.24 329.16"/><rect class="cls-7" x="183.18" y="363.18" width="118.64" height="6.2" rx="2.48" ry="2.48"/><rect class="cls-8" x="61.53" y="61.11" width="362.27" height="205.67"/></svg>