<?xml version="1.0" encoding="UTF-8" standalone="no"?>
<svg width="394px" height="376px" viewBox="0 0 394 376" version="1.1" xmlns="http://www.w3.org/2000/svg" xmlns:xlink="http://www.w3.org/1999/xlink">
    <!-- Generator: Sketch 44.1 (41455) - http://www.bohemiancoding.com/sketch -->
    <title>Artboard 2</title>
    <desc>Created with Sketch.</desc>
    <defs></defs>
    <g id="Page-3" stroke="none" stroke-width="1" fill="none" fill-rule="evenodd">
        <g id="Artboard-2" fill-rule="nonzero" fill="#C8C8C8">
            <g id="logo" transform="translate(52.000000, 47.000000)">
                <path d="M294.332303,13.6523666 C144.60659,101.571913 0.35,68.4533282 0.35,68.4533282 C0.35,68.4533282 156.312878,76.049334 254.309793,16.2518886 C254.309793,16.2518886 65.5912496,-4.26576699 121.177132,302.055826 C121.177132,302.055826 36.5745075,64.4865252 208.885678,4.96760002 C248.249868,-8.63769031 294.332303,13.6861266 294.332303,13.6861266" id="Shape"></path>
                <path d="M103.655678,299.658864 C103.655678,299.658864 120.662291,212.034717 129.954738,182.697255 C130.410499,181.270894 134.174742,179.667293 135.449183,180.334053 C139.230305,182.359655 145.29023,189.78686 145.29023,192.057222 C145.29023,200.159628 143.129588,247.887865 147.594352,258.311272 C148.742193,260.995194 173.876532,177.878011 177.716735,168.847204 C178.121855,167.885044 180.518817,167.395523 181.523178,167.117003 C182.974859,166.711883 190.469584,175.90305 189.878784,179.557573 C186.502781,200.455028 170.466769,263.349956 177.480415,299.557584 C178.088095,302.680386 173.040971,297.202822 171.06601,287.859735 C166.542166,266.405239 174.087532,224.922607 173.842772,211.055677 C173.842772,210.507076 172.306691,210.414236 172.10413,210.920636 C165.706606,226.543088 156.599839,277.259087 148.472112,287.184534 C146.471831,289.632136 138.344105,280.331249 136.656104,275.874926 C135.094702,271.857483 133.406701,231.488932 133.119741,219.225603 C133.119741,218.381602 131.305139,218.288762 131.220739,219.090563 C129.498978,234.721455 103.655678,299.658864 103.655678,299.658864 Z" id="Shape"></path>
            </g>
        </g>
    </g>
</svg>