<?xml version="1.0" encoding="UTF-8"?>
<svg width="800px" height="700px" viewBox="0 0 800 700" version="1.1" xmlns="http://www.w3.org/2000/svg" xmlns:xlink="http://www.w3.org/1999/xlink">
    <!-- Generator: Sketch 44.1 (41455) - http://www.bohemiancoding.com/sketch -->
    <title>Artboard Copy</title>
    <desc>Created with Sketch.</desc>
    <defs></defs>
    <g id="Page-3" stroke="none" stroke-width="1" fill="none" fill-rule="evenodd">
        <g id="Artboard-Copy">
            <g id="Group" transform="translate(371.232411, 174.717661)" fill="#B29E7D">
                <path d="M-51.5895177,344.383493 C4.06285088,250.997386 105.373454,188.533005 221.123567,188.533005 C336.965822,188.533005 438.345568,251.096874 493.969469,344.606569 L430.959307,382.683105 C388.161872,310.795136 310.201262,262.703352 221.123567,262.703352 C132.116736,262.703352 54.2093092,310.718649 11.3900342,382.511583 L-51.5895177,344.383493 Z" id="Combined-Shape" transform="translate(221.189976, 285.608055) rotate(120.000000) translate(-221.189976, -285.608055) "></path>
            </g>
            <path d="M668.808951,458.283306 L667.402737,460.742687 L647.647467,458.401446 L649.505218,455.152355 L653.976621,455.773535 L657.937242,448.846652 L655.142976,445.292265 L656.962023,442.110863 L668.808951,458.283306 Z M656.957556,456.187655 L664.799207,457.480001 L659.795786,451.223765 L656.957556,456.187655 Z M663.663219,469.784025 L662.115094,472.491601 L654.584738,468.101559 L654.546035,468.169248 C654.647391,468.408843 654.730969,468.68821 654.79677,469.007358 C654.862571,469.326505 654.891397,469.684261 654.883248,470.080635 C654.8751,470.477009 654.811356,470.901133 654.692015,471.353022 C654.572674,471.80491 654.366794,472.286564 654.074369,472.797998 C653.635731,473.565148 653.08626,474.187446 652.425938,474.664909 C651.765616,475.142373 651.051057,475.462855 650.282239,475.626364 C649.513421,475.789874 648.713289,475.799741 647.881818,475.655967 C647.050347,475.512192 646.239855,475.210167 645.450318,474.749884 C644.660781,474.2896 643.9922,473.739383 643.444553,473.099217 C642.896907,472.459051 642.503153,471.758187 642.263281,470.996603 C642.023409,470.23502 641.947445,469.438637 642.035388,468.607432 C642.12333,467.776227 642.403818,466.946978 642.876859,466.119659 C643.315496,465.352508 643.872992,464.724861 644.549363,464.236697 C645.225734,463.748534 646.00345,463.499969 646.882534,463.490995 L646.908336,463.445869 L645.299477,462.507937 L646.770196,459.93574 L663.663219,469.784025 Z M646.998444,472.042307 C647.415558,472.285476 647.858621,472.448507 648.327648,472.531406 C648.796675,472.614305 649.259708,472.603461 649.71676,472.498873 C650.173812,472.394285 650.603523,472.198553 651.005905,471.911672 C651.408288,471.624791 651.751386,471.233161 652.03521,470.736769 C652.319035,470.240378 652.483373,469.744534 652.528229,469.249222 C652.573085,468.753911 652.526101,468.280276 652.387277,467.828304 C652.248452,467.376332 652.026237,466.966002 651.720624,466.597302 C651.415011,466.228602 651.053653,465.922672 650.636539,465.679503 C650.219425,465.436334 649.776362,465.273303 649.307335,465.190404 C648.838308,465.107505 648.375275,465.118349 647.918223,465.222937 C647.461171,465.327526 647.03146,465.523257 646.629078,465.810138 C646.226695,466.097019 645.883597,466.48865 645.599773,466.985041 C645.315948,467.481433 645.15161,467.977277 645.106754,468.472588 C645.061898,468.9679 645.108882,469.441534 645.247706,469.893506 C645.386531,470.345479 645.608746,470.755808 645.914359,471.124509 C646.219972,471.493209 646.58133,471.799139 646.998444,472.042307 Z M644.315026,476.735439 C645.164151,477.230462 645.846898,477.834063 646.36329,478.546261 C646.879682,479.258459 647.233158,480.021081 647.423731,480.834148 C647.614303,481.647216 647.637244,482.49291 647.492553,483.371257 C647.347862,484.249603 647.043301,485.094903 646.578861,485.90718 C646.114421,486.719456 645.541719,487.408435 644.860739,487.974136 C644.179759,488.539838 643.442968,488.942624 642.650343,489.182508 C641.857719,489.422392 641.026908,489.494598 640.157886,489.399129 C639.288864,489.30366 638.429804,489.008418 637.580679,488.513396 C636.731555,488.018374 636.048807,487.414773 635.532416,486.702575 C635.016024,485.990377 634.662547,485.227755 634.471975,484.414688 C634.281402,483.60162 634.258462,482.755926 634.403153,481.877579 C634.547844,480.999232 634.852405,480.153933 635.316845,479.341656 C635.781285,478.529379 636.353986,477.8404 637.034967,477.274699 C637.715947,476.708998 638.452738,476.306211 639.245362,476.066327 C640.037987,475.826443 640.868797,475.754237 641.737819,475.849707 C642.606841,475.945176 643.465902,476.240417 644.315026,476.735439 Z M642.7669,479.443016 C642.349787,479.199847 641.906723,479.036816 641.437696,478.953917 C640.968669,478.871018 640.505636,478.881862 640.048584,478.98645 C639.591532,479.091038 639.161821,479.28677 638.759439,479.573651 C638.357057,479.860532 638.013958,480.252162 637.730134,480.748554 C637.44631,481.244945 637.281972,481.740789 637.237115,482.236101 C637.192259,482.731412 637.239243,483.205047 637.378067,483.657019 C637.516892,484.108991 637.739108,484.519321 638.044721,484.888021 C638.350333,485.256721 638.711691,485.562651 639.128805,485.80582 C639.545919,486.048989 639.988983,486.21202 640.45801,486.294919 C640.927037,486.377818 641.390069,486.366974 641.847121,486.262386 C642.304173,486.157797 642.733884,485.962066 643.136267,485.675185 C643.538649,485.388304 643.881747,484.996673 644.165572,484.500282 C644.449396,484.00389 644.613734,483.508046 644.65859,483.012735 C644.703446,482.517423 644.656463,482.043789 644.517638,481.591817 C644.378813,481.139845 644.156598,480.729515 643.850985,480.360814 C643.545372,479.992114 643.184014,479.686184 642.7669,479.443016 Z M625.122239,497.796681 L626.592958,495.224483 L628.313544,496.22755 L628.339346,496.182423 C627.94927,495.614061 627.707364,494.951581 627.613621,494.194963 C627.519879,493.438346 627.731027,492.608784 628.247071,491.706254 C628.659907,490.98423 629.125831,490.438576 629.644858,490.069275 C630.163885,489.699973 630.711083,489.472454 631.286467,489.386711 C631.86185,489.300967 632.441485,489.338043 633.025387,489.49794 C633.609289,489.657837 634.176824,489.898447 634.72801,490.219777 L641.498627,494.166907 L639.950501,496.874483 L634.520601,493.708963 C634.222662,493.535271 633.88261,493.357084 633.500434,493.174395 C633.118258,492.991707 632.730481,492.870934 632.337091,492.812074 C631.943701,492.753214 631.563752,492.792438 631.197234,492.92975 C630.830716,493.067061 630.509849,493.376386 630.234626,493.857736 C629.976603,494.309001 629.833921,494.732232 629.806575,495.127442 C629.779229,495.522653 629.834124,495.895606 629.971262,496.246313 C630.1084,496.597021 630.315029,496.913027 630.591157,497.194341 C630.867285,497.475655 631.184107,497.720524 631.541633,497.928954 L637.396094,501.341984 L635.847968,504.04956 L625.122239,497.796681 Z M632.536667,504.525874 L634.815884,505.854611 L633.538681,508.088362 L636.644673,509.899091 L635.096547,512.606668 L631.990555,510.795938 L630.287617,513.774272 L628.008399,512.445535 L629.711338,509.467201 L625.018831,506.731566 C624.482542,506.418921 623.999932,506.272946 623.570987,506.293639 C623.142041,506.314332 622.75556,506.625517 622.41153,507.227203 C622.273918,507.467878 622.149477,507.74631 622.038202,508.062507 C621.926927,508.378704 621.883574,508.654269 621.908141,508.88921 L619.651269,507.5735 C619.680611,507.209537 619.78747,506.805534 619.971852,506.361478 C620.156233,505.917423 620.338728,505.537458 620.519344,505.221572 C620.932179,504.499548 621.347961,503.954746 621.766701,503.587148 C622.185442,503.21955 622.630204,502.997495 623.101,502.920976 C623.571797,502.844457 624.073491,502.896263 624.606097,503.076396 C625.138704,503.25653 625.717833,503.528969 626.343504,503.893722 L631.259463,506.759625 L632.536667,504.525874 Z" id="About" fill="#14223F"></path>
            <ellipse id="Oval-3" fill="#FFFFFF" cx="399.308897" cy="348.144561" rx="222.187691" ry="224.354021"></ellipse>
        </g>
    </g>
</svg>