<?xml version="1.0" encoding="UTF-8"?>
<svg width="800px" height="700px" viewBox="0 0 800 700" version="1.1" xmlns="http://www.w3.org/2000/svg" xmlns:xlink="http://www.w3.org/1999/xlink">
    <!-- Generator: Sketch 44.1 (41455) - http://www.bohemiancoding.com/sketch -->
    <title>Artboard</title>
    <desc>Created with Sketch.</desc>
    <defs></defs>
    <g id="Page-3" stroke="none" stroke-width="1" fill="none" fill-rule="evenodd">
        <g id="Artboard">
            <g id="Group" transform="translate(126.232411, 23.717661)" fill="#FFFFFF">
                <path d="M0.175443556,155.850488 C55.8278121,62.4643811 157.138415,0 272.888528,0 C388.730783,0 490.11053,62.5638688 545.734431,156.073564 L482.724268,194.1501 C439.926833,122.262131 361.966223,74.1703474 272.888528,74.1703474 C183.881697,74.1703474 105.97427,122.185644 63.1549954,193.978578 L0.175443556,155.850488 Z" id="Combined-Shape"></path>
            </g>
            <path d="M355.233894,51.5892926 L361.374792,51.5892926 C362.252068,51.5892926 363.099228,51.6761373 363.916299,51.8498293 C364.733369,52.0235212 365.45152,52.3144509 366.070773,52.722627 C366.690027,53.1308032 367.184562,53.6779246 367.554394,54.3640079 C367.924226,55.0500912 368.109139,55.9055113 368.109139,56.9302939 C368.109139,58.09403 367.911325,59.0319526 367.515691,59.7440897 C367.120057,60.4562267 366.586819,61.0076904 365.915961,61.3984974 C365.245103,61.7893043 364.466748,62.0541806 363.580871,62.1931341 C362.694995,62.3320877 361.770429,62.4015634 360.807146,62.4015634 L358.484958,62.4015634 L358.484958,70.0352872 L355.233894,70.0352872 L355.233894,51.5892926 Z M360.445917,59.5877677 C360.910357,59.5877677 361.391991,59.5703987 361.890834,59.5356603 C362.389677,59.5009219 362.84981,59.3967083 363.271246,59.2230164 C363.692682,59.0493244 364.036707,58.7887904 364.30333,58.4414064 C364.569953,58.0940225 364.703262,57.6076923 364.703262,56.9824012 C364.703262,56.4092177 364.582854,55.9532831 364.342033,55.6145838 C364.101212,55.2758845 363.79159,55.0153504 363.413158,54.8329739 C363.034725,54.6505973 362.613295,54.533357 362.148855,54.4812494 C361.684415,54.4291418 361.237183,54.4030884 360.807146,54.4030884 L358.484958,54.4030884 L358.484958,59.5877677 L360.445917,59.5877677 Z M370.71515,57.5295282 L373.811402,57.5295282 L373.811402,59.5096067 L373.863006,59.5096067 C374.207035,58.7801004 374.69727,58.21561 375.333725,57.8161185 C375.97018,57.4166269 376.701232,57.2168842 377.526903,57.2168842 C377.71612,57.2168842 377.901033,57.2342531 378.081648,57.2689915 C378.262264,57.3037299 378.447177,57.3471522 378.636393,57.3992598 L378.636393,60.4214849 C378.378371,60.3520081 378.124653,60.2955591 377.875231,60.2521361 C377.62581,60.2087131 377.380693,60.187002 377.139872,60.187002 C376.41741,60.187002 375.836868,60.3216112 375.39823,60.5908338 C374.959593,60.8600563 374.624169,61.1683549 374.391949,61.5157389 C374.159729,61.8631228 374.004918,62.2105015 373.927511,62.5578854 C373.850104,62.9052694 373.811402,63.1658034 373.811402,63.3394954 L373.811402,70.0352872 L370.71515,70.0352872 L370.71515,57.5295282 Z M379.668477,63.7824077 C379.668477,62.7923635 379.84479,61.893521 380.19742,61.0858534 C380.55005,60.2781857 381.027384,59.5877705 381.629436,59.014587 C382.231488,58.4414036 382.945339,57.9984957 383.77101,57.6858501 C384.596681,57.3732046 385.473944,57.2168842 386.402824,57.2168842 C387.331704,57.2168842 388.208966,57.3732046 389.034637,57.6858501 C389.860308,57.9984957 390.574159,58.4414036 391.176211,59.014587 C391.778263,59.5877705 392.255597,60.2781857 392.608227,61.0858534 C392.960858,61.893521 393.13717,62.7923635 393.13717,63.7824077 C393.13717,64.7724519 392.960858,65.6712943 392.608227,66.478962 C392.255597,67.2866296 391.778263,67.9770448 391.176211,68.5502283 C390.574159,69.1234118 389.860308,69.5663197 389.034637,69.8789652 C388.208966,70.1916107 387.331704,70.3479312 386.402824,70.3479312 C385.473944,70.3479312 384.596681,70.1916107 383.77101,69.8789652 C382.945339,69.5663197 382.231488,69.1234118 381.629436,68.5502283 C381.027384,67.9770448 380.55005,67.2866296 380.19742,66.478962 C379.84479,65.6712943 379.668477,64.7724519 379.668477,63.7824077 Z M382.764728,63.7824077 C382.764728,64.2687452 382.846434,64.7377065 383.009848,65.1893056 C383.173262,65.6409047 383.414079,66.0403902 383.732307,66.3877741 C384.050534,66.7351581 384.433262,67.013061 384.8805,67.2214914 C385.327739,67.4299218 385.835175,67.5341354 386.402824,67.5341354 C386.970473,67.5341354 387.477909,67.4299218 387.925147,67.2214914 C388.372386,67.013061 388.755113,66.7351581 389.07334,66.3877741 C389.391568,66.0403902 389.632385,65.6409047 389.795799,65.1893056 C389.959213,64.7377065 390.040919,64.2687452 390.040919,63.7824077 C390.040919,63.2960702 389.959213,62.8271089 389.795799,62.3755098 C389.632385,61.9239107 389.391568,61.5244251 389.07334,61.1770412 C388.755113,60.8296573 388.372386,60.5517543 387.925147,60.3433239 C387.477909,60.1348936 386.970473,60.03068 386.402824,60.03068 C385.835175,60.03068 385.327739,60.1348936 384.8805,60.3433239 C384.433262,60.5517543 384.050534,60.8296573 383.732307,61.1770412 C383.414079,61.5244251 383.173262,61.9239107 383.009848,62.3755098 C382.846434,62.8271089 382.764728,63.2960702 382.764728,63.7824077 Z M399.17486,57.5295282 L399.17486,70.7908435 C399.17486,71.5724573 399.123257,72.2976104 399.020048,72.9663245 C398.916839,73.6350385 398.714724,74.2168979 398.413698,74.71192 C398.112673,75.2069421 397.686942,75.5934009 397.136495,75.8713081 C396.586047,76.1492152 395.872197,76.2881667 394.994921,76.2881667 C394.702496,76.2881667 394.418676,76.2707978 394.143452,76.2360594 C393.868228,76.201321 393.593009,76.1405297 393.317785,76.0536837 L393.550004,73.3441026 C393.722019,73.378841 393.88543,73.4092366 394.040244,73.4352904 C394.195057,73.4613442 394.358468,73.4743709 394.530483,73.4743709 C394.908916,73.4743709 395.205637,73.3918685 395.420656,73.2268611 C395.635674,73.0618537 395.790485,72.8490843 395.885093,72.5885463 C395.979701,72.3280084 396.035605,72.0414209 396.052807,71.7287754 C396.070008,71.4161299 396.078609,71.1121735 396.078609,70.8168971 L396.078609,57.5295282 L399.17486,57.5295282 Z M395.639973,53.2827808 C395.639973,52.7790741 395.824887,52.3405085 396.194718,51.9670708 C396.56455,51.593633 397.033284,51.406917 397.600933,51.406917 C398.168581,51.406917 398.645915,51.5849486 399.032949,51.9410171 C399.419982,52.2970856 399.613496,52.7443357 399.613496,53.2827808 C399.613496,53.8212259 399.419982,54.268476 399.032949,54.6245446 C398.645915,54.9806131 398.168581,55.1586447 397.600933,55.1586447 C397.033284,55.1586447 396.56455,54.9719286 396.194718,54.5984909 C395.824887,54.2250532 395.639973,53.7864875 395.639973,53.2827808 Z M405.21255,64.8766616 C405.315759,65.8145982 405.676985,66.5440935 406.296238,67.0651694 C406.915492,67.5862453 407.663745,67.8467794 408.54102,67.8467794 C409.315087,67.8467794 409.964433,67.6861167 410.489079,67.3647866 C411.013724,67.0434564 411.473857,66.6396287 411.869491,66.1532912 L414.088471,67.8467794 C413.366008,68.7499776 412.557551,69.3926282 411.663074,69.7747505 C410.768597,70.1568729 409.83113,70.3479312 408.850646,70.3479312 C407.921766,70.3479312 407.044503,70.1916107 406.218832,69.8789652 C405.393161,69.5663197 404.67931,69.1234118 404.077258,68.5502283 C403.475206,67.9770448 402.997872,67.2866296 402.645242,66.478962 C402.292612,65.6712943 402.116299,64.7724519 402.116299,63.7824077 C402.116299,62.7923635 402.292612,61.893521 402.645242,61.0858534 C402.997872,60.2781857 403.475206,59.5877705 404.077258,59.014587 C404.67931,58.4414036 405.393161,57.9984957 406.218832,57.6858501 C407.044503,57.3732046 407.921766,57.2168842 408.850646,57.2168842 C409.71072,57.2168842 410.497676,57.3688624 411.211537,57.6728233 C411.925399,57.9767843 412.536042,58.4153499 413.043486,58.9885334 C413.55093,59.5617169 413.946558,60.269501 414.230382,61.111907 C414.514207,61.9543131 414.656117,62.9226313 414.656117,64.0168907 L414.656117,64.8766616 L405.21255,64.8766616 Z M411.559865,62.5318318 C411.542664,61.6112644 411.258844,60.8861113 410.708396,60.3563508 C410.157949,59.8265903 409.392494,59.561714 408.41201,59.561714 C407.48313,59.561714 406.747778,59.8309325 406.205931,60.3693776 C405.664084,60.9078227 405.332961,61.6286335 405.21255,62.5318318 L411.559865,62.5318318 Z M426.009038,61.2812559 C425.647807,60.8991335 425.26938,60.5951772 424.873746,60.3693776 C424.478112,60.1435781 424.073883,60.03068 423.661048,60.03068 C423.093399,60.03068 422.585963,60.1348936 422.138724,60.3433239 C421.691486,60.5517543 421.308758,60.8296573 420.990531,61.1770412 C420.672304,61.5244251 420.431486,61.9239107 420.268072,62.3755098 C420.104658,62.8271089 420.022952,63.2960702 420.022952,63.7824077 C420.022952,64.2687452 420.104658,64.7377065 420.268072,65.1893056 C420.431486,65.6409047 420.672304,66.0403902 420.990531,66.3877741 C421.308758,66.7351581 421.691486,67.013061 422.138724,67.2214914 C422.585963,67.4299218 423.093399,67.5341354 423.661048,67.5341354 C424.142689,67.5341354 424.589921,67.434264 425.002757,67.2345182 C425.415592,67.0347725 425.768217,66.7438428 426.060642,66.3617205 L428.12481,68.6023356 C427.815183,68.9149812 427.458258,69.1841997 427.054023,69.4099992 C426.649788,69.6357988 426.241259,69.8181726 425.828424,69.9571262 C425.415588,70.0960798 425.01996,70.1959512 424.641527,70.2567433 C424.263095,70.3175355 423.936271,70.3479312 423.661048,70.3479312 C422.732168,70.3479312 421.854905,70.1916107 421.029234,69.8789652 C420.203563,69.5663197 419.489712,69.1234118 418.88766,68.5502283 C418.285608,67.9770448 417.808274,67.2866296 417.455644,66.478962 C417.103014,65.6712943 416.926701,64.7724519 416.926701,63.7824077 C416.926701,62.7923635 417.103014,61.893521 417.455644,61.0858534 C417.808274,60.2781857 418.285608,59.5877705 418.88766,59.014587 C419.489712,58.4414036 420.203563,57.9984957 421.029234,57.6858501 C421.854905,57.3732046 422.732168,57.2168842 423.661048,57.2168842 C424.452316,57.2168842 425.247872,57.3688624 426.047741,57.6728233 C426.84761,57.9767843 427.54856,58.4587722 428.150612,59.1188017 L426.009038,61.2812559 Z M428.537643,60.187002 L428.537643,57.5295282 L431.092051,57.5295282 L431.092051,53.9080688 L434.188302,53.9080688 L434.188302,57.5295282 L437.594179,57.5295282 L437.594179,60.187002 L434.188302,60.187002 L434.188302,65.6582715 C434.188302,66.2835626 434.30441,66.7785773 434.53663,67.1433304 C434.76885,67.5080835 435.228983,67.6904574 435.917042,67.6904574 C436.192266,67.6904574 436.493288,67.6600617 436.820116,67.5992695 C437.146944,67.5384774 437.404962,67.438606 437.594179,67.2996524 L437.594179,69.9310725 C437.26735,70.0873953 436.867422,70.1959512 436.394381,70.2567433 C435.92134,70.3175355 435.504211,70.3479312 435.14298,70.3479312 C434.317308,70.3479312 433.64216,70.2567443 433.117515,70.0743677 C432.59287,69.8919911 432.180041,69.6140881 431.879015,69.2406504 C431.577989,68.8672127 431.371574,68.4025937 431.259764,67.8467794 C431.147955,67.2909651 431.092051,66.6483144 431.092051,65.9188082 L431.092051,60.187002 L428.537643,60.187002 Z M446.624912,60.9946656 C446.02286,60.1435749 445.214402,59.718036 444.199515,59.718036 C443.786679,59.718036 443.38245,59.8222496 442.986816,60.03068 C442.591182,60.2391103 442.393368,60.5778046 442.393368,61.0467729 C442.393368,61.4288952 442.55678,61.7067982 442.883608,61.8804902 C443.210436,62.0541821 443.623265,62.2018181 444.122108,62.3234025 C444.620951,62.4449868 445.15849,62.5709116 445.734739,62.7011806 C446.310989,62.8314496 446.848527,63.0311923 447.34737,63.3004149 C447.846213,63.5696374 448.259043,63.9387273 448.585871,64.4076956 C448.912699,64.8766639 449.07611,65.5193146 449.07611,66.3356668 C449.07611,67.0825423 448.916999,67.7121662 448.598772,68.2245575 C448.280544,68.7369488 447.867715,69.149461 447.360271,69.4621066 C446.852827,69.7747521 446.280887,70.0005483 445.644432,70.1395018 C445.007977,70.2784554 444.371532,70.3479312 443.735077,70.3479312 C442.771794,70.3479312 441.885931,70.2089797 441.077461,69.9310725 C440.268992,69.6531654 439.54654,69.1494662 438.910085,68.41996 L440.974253,66.4659351 C441.369887,66.9175342 441.795617,67.2866241 442.251457,67.5732159 C442.707296,67.8598076 443.262035,68.0031013 443.915692,68.0031013 C444.139311,68.0031013 444.371527,67.9770479 444.612348,67.9249404 C444.853169,67.8728328 445.076785,67.7859881 445.283203,67.6644037 C445.48962,67.5428193 445.657332,67.3908411 445.786343,67.2084646 C445.915355,67.026088 445.979859,66.8133185 445.979859,66.5701498 C445.979859,66.1359199 445.816448,65.8145946 445.489619,65.6061642 C445.162791,65.3977338 444.749962,65.2283867 444.251119,65.0981177 C443.752276,64.9678488 443.214738,64.8462662 442.638488,64.7333664 C442.062238,64.6204667 441.5247,64.4380928 441.025857,64.1862395 C440.527014,63.9343861 440.114185,63.5826652 439.787357,63.1310661 C439.460528,62.6794669 439.297117,62.0541852 439.297117,61.2552022 C439.297117,60.5604343 439.439027,59.9568638 439.722851,59.4444725 C440.006676,58.9320812 440.380802,58.5108845 440.845242,58.1808698 C441.309682,57.850855 441.84292,57.6076899 442.444972,57.4513672 C443.047024,57.2950444 443.657668,57.2168842 444.276921,57.2168842 C445.102592,57.2168842 445.91965,57.3601779 446.72812,57.6467697 C447.53659,57.9333614 448.190236,58.4240338 448.689079,59.1188017 L446.624912,60.9946656 Z" id="Projects" fill="#14223F"></path>
            <ellipse id="Oval-3" fill="#FFFFFF" cx="399.308897" cy="348.144561" rx="222.187691" ry="224.354021"></ellipse>
        </g>
    </g>
</svg>