<?xml version="1.0" encoding="UTF-8"?>
<svg width="800px" height="700px" viewBox="0 0 800 700" version="1.1" xmlns="http://www.w3.org/2000/svg" xmlns:xlink="http://www.w3.org/1999/xlink">
    <!-- Generator: Sketch 44.1 (41455) - http://www.bohemiancoding.com/sketch -->
    <title>Artboard Copy 2</title>
    <desc>Created with Sketch.</desc>
    <defs></defs>
    <g id="Page-3" stroke="none" stroke-width="1" fill="none" fill-rule="evenodd">
        <g id="Artboard-Copy-2">
            <g id="Group" transform="translate(-14.767589, 174.717661)" fill="#C8C8C8">
                <path d="M-51.794809,344.383493 C3.85755955,250.997386 105.168162,188.533005 220.918276,188.533005 C336.760531,188.533005 438.140277,251.096874 493.764178,344.606569 L430.754015,382.683105 C387.956581,310.795136 309.995971,262.703352 220.918276,262.703352 C131.911445,262.703352 54.0040179,310.718649 11.1847428,382.511583 L-51.794809,344.383493 Z" id="Combined-Shape" transform="translate(220.984684, 285.608055) rotate(240.000000) translate(-220.984684, -285.608055) "></path>
            </g>
            <path d="M169.718539,519.507198 C169.428297,520.458595 169.335862,521.269594 169.441233,521.940217 C169.546603,522.61084 169.758398,523.224423 170.076626,523.780983 C170.549667,524.608302 171.12279,525.271965 171.796013,525.771992 C172.469236,526.272019 173.20042,526.612892 173.989587,526.794623 C174.778755,526.976353 175.591212,526.999092 176.426983,526.862838 C177.262755,526.726584 178.075397,526.42832 178.864933,525.968036 C179.714058,525.473014 180.420879,524.885463 180.985418,524.205364 C181.549958,523.525266 181.955305,522.792572 182.201474,522.007262 C182.447642,521.221952 182.528328,520.407775 182.443533,519.564706 C182.358739,518.721638 182.079825,517.886457 181.606785,517.059138 C181.236953,516.412325 180.725186,515.873339 180.071469,515.442166 C179.417752,515.010992 178.605212,514.727576 177.633825,514.591907 L177.945666,511.281355 C179.341698,511.430195 180.559876,511.893294 181.600234,512.670666 C182.640593,513.448037 183.496189,514.423353 184.167046,515.596642 C184.872307,516.830099 185.322122,518.077075 185.516504,519.337605 C185.710887,520.598135 185.659697,521.811277 185.362933,522.977067 C185.066169,524.142857 184.53171,525.231603 183.75954,526.243336 C182.98737,527.25507 181.983078,528.121334 180.746634,528.842156 C179.480396,529.580347 178.209217,530.040635 176.93306,530.223033 C175.656904,530.405432 174.441001,530.337112 173.285315,530.01807 C172.129629,529.699028 171.059843,529.139392 170.075923,528.339146 C169.092004,527.538899 168.247427,526.522063 167.542166,525.288605 C166.922913,524.205569 166.538755,523.090793 166.389681,521.944242 C166.240607,520.797692 166.392504,519.560938 166.845377,518.233942 L169.718539,519.507198 Z M174.351038,511.87274 C173.501914,512.367762 172.642853,512.663004 171.773831,512.758473 C170.904809,512.853942 170.073999,512.781736 169.281374,512.541852 C168.48875,512.301968 167.751959,511.899182 167.070979,511.33348 C166.389999,510.767779 165.817297,510.0788 165.352857,509.266524 C164.888417,508.454247 164.583856,507.608947 164.439165,506.730601 C164.294474,505.852254 164.317415,505.00656 164.507987,504.193492 C164.698559,503.380424 165.052036,502.617803 165.568428,501.905605 C166.084819,501.193407 166.767567,500.589806 167.616692,500.094783 C168.465816,499.599761 169.324876,499.30452 170.193898,499.209051 C171.06292,499.113581 171.893731,499.185787 172.686355,499.425671 C173.47898,499.665555 174.215771,500.068342 174.896751,500.634043 C175.577731,501.199744 176.150433,501.888723 176.614873,502.701 C177.079313,503.513277 177.383874,504.358576 177.528565,505.236923 C177.673256,506.11527 177.650315,506.960964 177.459743,507.774032 C177.26917,508.587099 176.915694,509.34972 176.399302,510.061919 C175.88291,510.774117 175.200163,511.377718 174.351038,511.87274 Z M172.802913,509.165164 C173.220026,508.921995 173.581384,508.616065 173.886997,508.247365 C174.19261,507.878665 174.414825,507.468335 174.55365,507.016363 C174.692475,506.564391 174.739458,506.090756 174.694602,505.595445 C174.649746,505.100133 174.485408,504.604289 174.201584,504.107898 C173.917759,503.611506 173.574661,503.219876 173.172279,502.932995 C172.769896,502.646114 172.340186,502.450382 171.883133,502.345794 C171.426081,502.241206 170.963049,502.230362 170.494022,502.313261 C170.024995,502.396159 169.581931,502.559191 169.164817,502.80236 C168.747703,503.045528 168.386346,503.351458 168.080733,503.720158 C167.77512,504.088859 167.552904,504.499188 167.41408,504.95116 C167.275255,505.403133 167.228271,505.876767 167.273128,506.372079 C167.317984,506.86739 167.482322,507.363234 167.766146,507.859626 C168.049971,508.356017 168.393069,508.747647 168.795451,509.034529 C169.197833,509.32141 169.627544,509.517141 170.084596,509.62173 C170.541648,509.726318 171.004681,509.737162 171.473708,509.654263 C171.942735,509.571364 172.385799,509.408333 172.802913,509.165164 Z M160.80891,500.694152 L159.33819,498.121955 L161.058776,497.118888 L161.032974,497.073762 C160.350472,497.130691 159.661335,497.01099 158.96554,496.714656 C158.269746,496.418322 157.663836,495.818899 157.147791,494.916369 C156.734956,494.194345 156.503654,493.511911 156.45388,492.869045 C156.404106,492.226178 156.48257,491.633912 156.689274,491.092227 C156.895979,490.550542 157.21387,490.064378 157.642959,489.633723 C158.072048,489.203067 158.562178,488.827079 159.113364,488.505749 L165.88398,484.558619 L167.432106,487.266195 L162.002206,490.431716 C161.704267,490.605408 161.381416,490.813679 161.033643,491.056536 C160.68587,491.299393 160.388399,491.578106 160.141222,491.892683 C159.894044,492.20726 159.739862,492.562887 159.67867,492.959572 C159.617478,493.356258 159.720192,493.787748 159.986815,494.254055 C160.244837,494.70532 160.536486,495.041707 160.86177,495.263225 C161.187055,495.484743 161.534371,495.623216 161.903728,495.678647 C162.273086,495.734078 162.647427,495.71139 163.026764,495.610582 C163.406101,495.509774 163.774527,495.355157 164.132053,495.146726 L169.986513,491.733696 L171.534639,494.441272 L160.80891,500.694152 Z M156.405385,487.677711 L154.126167,489.006448 L152.848964,486.772697 L149.742971,488.583427 L148.194846,485.875851 L151.300838,484.065121 L149.5979,481.086787 L151.877117,479.75805 L153.580055,482.736384 L158.272562,480.000749 C158.808851,479.688104 159.175353,479.339064 159.372078,478.953618 C159.568804,478.568172 159.495152,478.074613 159.151123,477.472926 C159.013511,477.232252 158.836931,476.984216 158.621378,476.728811 C158.405824,476.473406 158.191159,476.297712 157.977376,476.201725 L160.234248,474.886015 C160.531734,475.093655 160.824803,475.389102 161.113462,475.772366 C161.402122,476.155629 161.636756,476.505198 161.817372,476.821084 C162.230207,477.543108 162.489574,478.179097 162.595479,478.729072 C162.701383,479.279046 162.669451,479.779004 162.49968,480.228961 C162.329909,480.678917 162.03463,481.09173 161.613833,481.467411 C161.193037,481.843093 160.669811,482.213304 160.04414,482.578057 L155.128181,485.443961 L156.405385,487.677711 Z M153.765829,466.803803 L153.804532,466.871493 C154.638925,466.906521 155.365922,467.144542 155.985544,467.585563 C156.605167,468.026585 157.121388,468.608099 157.534224,469.330123 C157.818048,469.826514 158.028383,470.350697 158.165234,470.902686 C158.302085,471.454676 158.341797,471.993091 158.284371,472.517946 C158.226944,473.042802 158.061631,473.535281 157.788425,473.995398 C157.515219,474.455514 157.110478,474.84189 156.574189,475.154535 C155.993209,475.493235 155.437689,475.6767 154.907613,475.704936 C154.377538,475.733172 153.873652,475.650878 153.395942,475.458052 C152.918231,475.265227 152.464138,474.98343 152.033649,474.612653 C151.60316,474.241877 151.202893,473.828421 150.832835,473.372274 C150.462777,472.916126 150.120368,472.438856 149.805597,471.94045 C149.490827,471.442043 149.204435,470.967214 148.946412,470.515949 L148.559381,469.839055 L148.268892,470.008404 C147.598531,470.399211 147.229077,470.925462 147.160519,471.587172 C147.091962,472.248883 147.264098,472.94074 147.676933,473.662764 C148.003762,474.234366 148.409636,474.709735 148.894569,475.088884 C149.379502,475.468034 149.896484,475.738237 150.445531,475.899504 L149.850545,478.141672 C148.895742,477.896054 148.05421,477.449035 147.325926,476.800602 C146.597642,476.152168 145.988388,475.399261 145.498146,474.541858 C145.059508,473.774708 144.775337,473.077969 144.645626,472.45162 C144.515915,471.825271 144.486223,471.260959 144.556551,470.758666 C144.626878,470.256374 144.783324,469.809177 145.025892,469.417062 C145.268461,469.024946 145.544852,468.683313 145.855074,468.392151 C146.165296,468.100988 146.483692,467.850188 146.810272,467.639743 C147.136852,467.429297 147.426761,467.250258 147.680009,467.10262 L153.847303,463.507214 L155.240616,465.944032 L153.765829,466.803803 Z M150.526691,468.902743 L150.849217,469.466822 C151.064236,469.842876 151.319949,470.255366 151.616366,470.704304 C151.912783,471.153242 152.23511,471.551967 152.583358,471.900492 C152.931605,472.249017 153.295433,472.503213 153.674852,472.663088 C154.054272,472.822962 154.437636,472.79 154.824955,472.5642 C155.078203,472.416562 155.258229,472.236401 155.365038,472.023712 C155.471847,471.811023 155.533234,471.579691 155.5492,471.329708 C155.565167,471.079725 155.534714,470.826723 155.457842,470.570695 C155.380971,470.314666 155.278031,470.073839 155.149019,469.848207 C154.615774,468.915592 154.002569,468.35552 153.309388,468.167971 C152.616207,467.980423 151.889756,468.108104 151.130013,468.551019 L150.526691,468.902743 Z M140.443514,457.572877 C140.296398,458.079823 140.224919,458.562724 140.229076,459.021594 C140.233233,459.480463 140.338519,459.890398 140.544937,460.25141 C140.828761,460.747801 141.171859,461.139432 141.574242,461.426313 C141.976624,461.713194 142.406335,461.908926 142.863387,462.013514 C143.320439,462.118102 143.783472,462.128946 144.252499,462.046047 C144.721526,461.963148 145.164589,461.800117 145.581703,461.556948 C145.998817,461.313779 146.360175,461.007849 146.665788,460.639149 C146.971401,460.270449 147.193616,459.860119 147.332441,459.408147 C147.471265,458.956175 147.518249,458.482541 147.473393,457.987229 C147.428537,457.491918 147.264199,456.996074 146.980374,456.499682 C146.739553,456.078501 146.430282,455.737347 146.052549,455.476208 C145.674817,455.215069 145.248985,455.052174 144.77504,454.987518 L145.664649,452.06216 C146.087607,452.176596 146.496969,452.354107 146.892746,452.594698 C147.288523,452.835289 147.649203,453.101348 147.974796,453.392883 C148.300389,453.684419 148.58386,453.980447 148.825215,454.280979 C149.066571,454.581511 149.256051,454.85211 149.393663,455.092784 C149.858103,455.905061 150.162664,456.75036 150.307355,457.628707 C150.452046,458.507054 150.429106,459.352748 150.238533,460.165816 C150.047961,460.978883 149.694484,461.741505 149.178093,462.453703 C148.661701,463.165901 147.978953,463.769502 147.129829,464.264524 C146.280704,464.759546 145.421644,465.054788 144.552622,465.150257 C143.6836,465.245727 142.852789,465.17352 142.060165,464.933636 C141.267541,464.693752 140.530749,464.290966 139.849769,463.725265 C139.168789,463.159563 138.596088,462.470585 138.131648,461.658308 C137.736014,460.966368 137.468581,460.194689 137.329343,459.343248 C137.190105,458.491807 137.253013,457.637854 137.51807,456.781363 L140.443514,457.572877 Z M138.24071,455.908816 L135.961493,457.237553 L134.684289,455.003803 L131.578297,456.814532 L130.030171,454.106956 L133.136164,452.296226 L131.433225,449.317893 L133.712443,447.989156 L135.415381,450.96749 L140.107888,448.231855 C140.644177,447.919209 141.010679,447.570169 141.207404,447.184723 C141.404129,446.799277 141.330478,446.305718 140.986448,445.704032 C140.848837,445.463357 140.672257,445.215321 140.456703,444.959916 C140.24115,444.704511 140.026485,444.528818 139.812701,444.43283 L142.069574,443.11712 C142.36706,443.32476 142.660129,443.620207 142.948788,444.003471 C143.237448,444.386734 143.472082,444.736303 143.652697,445.052189 C144.065533,445.774213 144.324899,446.410203 144.430804,446.960177 C144.536709,447.510151 144.504777,448.010109 144.335006,448.460066 C144.165235,448.910023 143.869956,449.322836 143.449159,449.698517 C143.028362,450.074198 142.505137,450.44441 141.879466,450.809163 L136.963507,453.675066 L138.24071,455.908816 Z" id="Contact" fill="#14223F"></path>
            <ellipse id="Oval-3" fill="#FFFFFF" cx="399.308897" cy="348.144561" rx="222.187691" ry="224.354021"></ellipse>
        </g>
    </g>
</svg>