<?xml version="1.0" encoding="UTF-8" standalone="no"?>
<svg width="1309px" height="800px" viewBox="0 0 1309 800" version="1.1" xmlns="http://www.w3.org/2000/svg" xmlns:xlink="http://www.w3.org/1999/xlink">
    <!-- Generator: Sketch 44.1 (41455) - http://www.bohemiancoding.com/sketch -->
    <title>Artboard Copy 7</title>
    <desc>Created with Sketch.</desc>
    <defs></defs>
    <g id="Page-3" stroke="none" stroke-width="1" fill="none" fill-rule="evenodd" opacity="0.633774909">
        <g id="Artboard-Copy-7" fill="#0F1B31">
            <path d="M604.45,479.7 L647.65,479.7 L690.175,591.3 L733.15,479.7 L775.9,479.7 L775.9,639 L748.9,639 L748.9,506.7 L748.45,506.7 L700.075,639 L680.275,639 L631.9,506.7 L631.45,506.7 L631.45,639 L604.45,639 L604.45,479.7 Z M863.65,479.7 L888.175,479.7 L956.8,639 L924.4,639 L909.55,602.55 L840.475,602.55 L826.075,639 L794.35,639 L863.65,479.7 Z M899.65,578.25 L875.125,513.45 L850.15,578.25 L899.65,578.25 Z M974.575,479.7 L1029.925,479.7 C1037.57504,479.7 1044.96246,480.412493 1052.0875,481.8375 C1059.21254,483.262507 1065.54997,485.699983 1071.1,489.15 C1076.65003,492.600017 1081.07498,497.249971 1084.375,503.1 C1087.67502,508.950029 1089.325,516.374955 1089.325,525.375 C1089.325,536.925058 1086.13753,546.599961 1079.7625,554.4 C1073.38747,562.200039 1064.27506,566.924992 1052.425,568.575 L1094.725,639 L1060.525,639 L1023.625,571.5 L1002.925,571.5 L1002.925,639 L974.575,639 L974.575,479.7 Z M1024.975,547.2 C1029.02502,547.2 1033.07498,547.012502 1037.125,546.6375 C1041.17502,546.262498 1044.88748,545.362507 1048.2625,543.9375 C1051.63752,542.512493 1054.37499,540.337515 1056.475,537.4125 C1058.57501,534.487485 1059.625,530.400026 1059.625,525.15 C1059.625,520.499977 1058.65001,516.750014 1056.7,513.9 C1054.74999,511.049986 1052.20002,508.912507 1049.05,507.4875 C1045.89998,506.062493 1042.41252,505.125002 1038.5875,504.675 C1034.76248,504.224998 1031.05002,504 1027.45,504 L1002.925,504 L1002.925,547.2 L1024.975,547.2 Z M1115.65,479.7 L1144,479.7 L1144,639 L1115.65,639 L1115.65,479.7 Z M1178.875,479.7 L1284.4,479.7 L1284.4,505.35 L1207.225,505.35 L1207.225,544.5 L1280.35,544.5 L1280.35,570.15 L1207.225,570.15 L1207.225,613.35 L1288.45,613.35 L1288.45,639 L1178.875,639 L1178.875,479.7 Z" id="Marie"></path>
            <path d="M67.4,241.35 L18.575,241.35 L18.575,215.7 L144.575,215.7 L144.575,241.35 L95.75,241.35 L95.75,375 L67.4,375 L67.4,241.35 Z M194.75,215.7 L219.275,215.7 L287.9,375 L255.5,375 L240.65,338.55 L171.575,338.55 L157.175,375 L125.45,375 L194.75,215.7 Z M230.75,314.25 L206.225,249.45 L181.25,314.25 L230.75,314.25 Z M305.675,215.7 L361.025,215.7 C368.675038,215.7 376.062464,216.412493 383.1875,217.8375 C390.312536,219.262507 396.649972,221.699983 402.2,225.15 C407.750028,228.600017 412.174984,233.249971 415.475,239.1 C418.775017,244.950029 420.425,252.374955 420.425,261.375 C420.425,272.925058 417.237532,282.599961 410.8625,290.4 C404.487468,298.200039 395.375059,302.924992 383.525,304.575 L425.825,375 L391.625,375 L354.725,307.5 L334.025,307.5 L334.025,375 L305.675,375 L305.675,215.7 Z M356.075,283.2 C360.12502,283.2 364.17498,283.012502 368.225,282.6375 C372.27502,282.262498 375.987483,281.362507 379.3625,279.9375 C382.737517,278.512493 385.47499,276.337515 387.575,273.4125 C389.675011,270.487485 390.725,266.400026 390.725,261.15 C390.725,256.499977 389.75001,252.750014 387.8,249.9 C385.84999,247.049986 383.300016,244.912507 380.15,243.4875 C376.999984,242.062493 373.512519,241.125002 369.6875,240.675 C365.862481,240.224998 362.150018,240 358.55,240 L334.025,240 L334.025,283.2 L356.075,283.2 Z M447.425,215.7 L485,215.7 L562.175,334.05 L562.625,334.05 L562.625,215.7 L590.975,215.7 L590.975,375 L554.975,375 L476.225,252.825 L475.775,252.825 L475.775,375 L447.425,375 L447.425,215.7 Z M625.85,215.7 L654.2,215.7 L654.2,375 L625.85,375 L625.85,215.7 Z M767.15,249.9 C764.149985,245.549978 760.137525,242.36251 755.1125,240.3375 C750.087475,238.31249 744.800028,237.3 739.25,237.3 C735.949984,237.3 732.762515,237.674996 729.6875,238.425 C726.612485,239.175004 723.837512,240.374992 721.3625,242.025 C718.887488,243.675008 716.900008,245.812487 715.4,248.4375 C713.899993,251.062513 713.15,254.174982 713.15,257.775 C713.15,263.175027 715.024981,267.299986 718.775,270.15 C722.525019,273.000014 727.174972,275.474989 732.725,277.575 C738.275028,279.67501 744.349967,281.69999 750.95,283.65 C757.550033,285.60001 763.624972,288.299983 769.175,291.75 C774.725028,295.200017 779.374981,299.774971 783.125,305.475 C786.875019,311.175028 788.75,318.749953 788.75,328.2 C788.75,336.750043 787.175016,344.212468 784.025,350.5875 C780.874984,356.962532 776.637527,362.249979 771.3125,366.45 C765.987473,370.650021 759.800035,373.799989 752.75,375.9 C745.699965,378.000011 738.275039,379.05 730.475,379.05 C720.574951,379.05 711.050046,377.400016 701.9,374.1 C692.749954,370.799983 684.875033,365.250039 678.275,357.45 L699.65,336.75 C703.100017,342.000026 707.637472,346.087485 713.2625,349.0125 C718.887528,351.937515 724.849969,353.4 731.15,353.4 C734.450017,353.4 737.749984,352.950004 741.05,352.05 C744.350017,351.149995 747.349987,349.800009 750.05,348 C752.750014,346.199991 754.924992,343.912514 756.575,341.1375 C758.225008,338.362486 759.05,335.175018 759.05,331.575 C759.05,325.724971 757.175019,321.225016 753.425,318.075 C749.674981,314.924984 745.025028,312.262511 739.475,310.0875 C733.924972,307.912489 727.850033,305.85001 721.25,303.9 C714.649967,301.94999 708.575028,299.287517 703.025,295.9125 C697.474972,292.537483 692.825019,288.037528 689.075,282.4125 C685.324981,276.787472 683.45,269.250047 683.45,259.8 C683.45,251.549959 685.137483,244.42503 688.5125,238.425 C691.887517,232.42497 696.312473,227.43752 701.7875,223.4625 C707.262527,219.48748 713.524965,216.52501 720.575,214.575 C727.625035,212.62499 734.824963,211.65 742.175,211.65 C750.575042,211.65 758.712461,212.924987 766.5875,215.475 C774.462539,218.025013 781.549969,222.224971 787.85,228.075 L767.15,249.9 Z M818.225,215.7 L846.575,215.7 L846.575,279.15 L921.05,279.15 L921.05,215.7 L949.4,215.7 L949.4,375 L921.05,375 L921.05,304.8 L846.575,304.8 L846.575,375 L818.225,375 L818.225,215.7 Z M1036.475,215.7 L1061,215.7 L1129.625,375 L1097.225,375 L1082.375,338.55 L1013.3,338.55 L998.9,375 L967.175,375 L1036.475,215.7 Z M1072.475,314.25 L1047.95,249.45 L1022.975,314.25 L1072.475,314.25 Z" id="Tarnisha"></path>
        </g>
    </g>
</svg>