<?xml version="1.0" encoding="UTF-8" standalone="no"?>
<svg width="490px" height="471px" viewBox="0 0 490 471" version="1.1" xmlns="http://www.w3.org/2000/svg" xmlns:xlink="http://www.w3.org/1999/xlink">
    <!-- Generator: Sketch 44.1 (41455) - http://www.bohemiancoding.com/sketch -->
    <title>Artboard 2</title>
    <desc>Created with Sketch.</desc>
    <defs></defs>
    <g id="project-page" stroke="none" stroke-width="1" fill="none" fill-rule="evenodd">
        <g id="Artboard-2">
            <g id="Group" transform="translate(-41.000000, 0.000000)">
                <path d="M97.7888834,107.674249 C136.612966,43.1554975 207.289045,0 288.038383,0 C368.852002,0 439.576316,43.2242318 478.380539,107.828368 L434.423529,134.13475 C404.567277,84.4686683 350.180568,51.2429354 288.038383,51.2429354 C225.945635,51.2429354 171.596027,84.4158251 141.724539,134.016249 L97.7888834,107.674249 Z" id="Combined-Shape" fill="#FFFFFF"></path>
                <path d="M232.593084,342.251388 C271.417167,277.732636 342.093246,234.577138 422.842585,234.577138 C503.656203,234.577138 574.380517,277.80137 613.18474,342.405506 L569.22773,368.711888 C539.371478,319.045806 484.984769,285.820073 422.842585,285.820073 C360.749836,285.820073 306.400228,318.992963 276.52874,368.593387 L232.593084,342.251388 Z" id="Combined-Shape" fill="#B29E7D" transform="translate(422.888912, 301.644513) rotate(120.000000) translate(-422.888912, -301.644513) "></path>
                <path d="M-36.8305981,342.251388 C1.99348439,277.732636 72.6695634,234.577138 153.418902,234.577138 C234.23252,234.577138 304.956835,277.80137 343.761058,342.405506 L299.804047,368.711888 C269.947795,319.045806 215.561087,285.820073 153.418902,285.820073 C91.3261531,285.820073 36.9765459,318.992963 7.10505781,368.593387 L-36.8305981,342.251388 Z" id="Combined-Shape" fill="#C8C8C8" transform="translate(153.465230, 301.644513) rotate(240.000000) translate(-153.465230, -301.644513) "></path>
            </g>
            <circle id="Oval-3" fill="#FFFFFF" cx="247.322466" cy="222.322466" r="146.322466"></circle>
        </g>
    </g>
</svg>