<svg id="Layer_1" data-name="Layer 1" xmlns="http://www.w3.org/2000/svg" xmlns:xlink="http://www.w3.org/1999/xlink" viewBox="0 0 394.35 327.28"><defs><style>.cls-1{fill:none;}.cls-2{clip-path:url(#clip-path);}.cls-3{isolation:isolate;}.cls-4{fill:url(#linear-gradient);}.cls-5{fill:url(#linear-gradient-2);}.cls-6{fill:url(#linear-gradient-3);}.cls-7{fill:#acadb1;}.cls-8{fill:#fff;}</style><clipPath id="clip-path"><path class="cls-1" d="M-377.2,275.75l-4.46,36.49s-12,1.53-17.21,3.1c-6.57,2,4.94,3.42,11.88,3.25,29.62-.73,88,0,117.59-.69,3-.07,4.47-2,3.33-2.68-2.64-1.49-16.66-2.3-17.49-3.38-3-3.86-5.19-36.09-5.19-36.09h141.48a10.19,10.19,0,0,0,10.16-10.16V2.36A10.19,10.19,0,0,0-147.27-7.82l-369.91,1c-5.59,0-11,3.57-11,9.15V265.59A10.19,10.19,0,0,0-518,275.75Z"/></clipPath><linearGradient id="linear-gradient" x1="38.79" y1="43.1" x2="355.27" y2="359.58" gradientTransform="matrix(1, 0, 0, -1, 0, 328.73)" gradientUnits="userSpaceOnUse"><stop offset="0.64" stop-color="#141414"/><stop offset="0.83" stop-color="#c8c8c8"/><stop offset="1"/></linearGradient><linearGradient id="linear-gradient-2" x1="91.55" y1="-41.34" x2="302.52" y2="169.64" gradientTransform="matrix(1, 0, 0, -1, 0, 328.73)" gradientUnits="userSpaceOnUse"><stop offset="0.42" stop-color="#888"/><stop offset="0.82" stop-color="#c8c8c8"/></linearGradient><linearGradient id="linear-gradient-3" x1="197.91" y1="45.83" x2="197.91" y2="8.62" gradientTransform="matrix(1, 0, 0, -1, 0, 328.73)" gradientUnits="userSpaceOnUse"><stop offset="0.43" stop-color="#888"/><stop offset="0.68" stop-color="#a5a5a5"/><stop offset="0.95" stop-color="#c8c8c8"/></linearGradient></defs><title>desktop</title><g class="cls-2"><image class="cls-3" width="1920" height="1080" transform="translate(-665.27 -34.51) scale(0.35)" xlink:href="../../../../Project/10 min presentation of Final Presentation v3/10 min presentation of Final Presentation v3.001.png"/></g><path class="cls-4" d="M8.9,1.93H385.16a7,7,0,0,1,7,7v239.8H1.9V8.93A7,7,0,0,1,8.9,1.93Z"/><path class="cls-5" d="M1.9,248.73H392.16v28.79a7,7,0,0,1-7,7H8.9a7,7,0,0,1-7-7V248.73Z"/><polygon class="cls-6" points="154.48 284.52 149.7 320.11 246.12 318.99 240.93 282.89 154.48 284.52"/><rect class="cls-7" x="138.42" y="318.54" width="118.64" height="6.2" rx="2.48" ry="2.48"/><rect class="cls-8" x="16.77" y="16.47" width="362.27" height="205.67"/></svg>