<svg id="Layer_1" data-name="Layer 1" xmlns="http://www.w3.org/2000/svg" xmlns:xlink="http://www.w3.org/1999/xlink" viewBox="0 0 790.92 618.3"><defs><style>.cls-1,.cls-2,.cls-3{fill:#231f20;}.cls-1,.cls-4{clip-rule:evenodd;}.cls-2,.cls-9{fill-rule:evenodd;}.cls-4,.cls-5,.cls-9{fill:#808285;}.cls-6{clip-path:url(#clip-path);}.cls-7{clip-path:url(#clip-path-2);}.cls-8{clip-path:url(#clip-path-3);}.cls-10{clip-path:url(#clip-path-4);}.cls-11{clip-path:url(#clip-path-7);}.cls-12{clip-path:url(#clip-path-8);}.cls-13{clip-path:url(#clip-path-9);}.cls-14{clip-path:url(#clip-path-10);}.cls-15{clip-path:url(#clip-path-11);}.cls-16{clip-path:url(#clip-path-13);}.cls-17{clip-path:url(#clip-path-14);}.cls-18{clip-path:url(#clip-path-15);}</style><clipPath id="clip-path"><path class="cls-1" d="M-637.47,205.84a198.55,198.55,0,0,1,170.33-96.4A198.55,198.55,0,0,1-296.73,206l-39.35,23.55a152.73,152.73,0,0,0-131.06-74.21,152.73,152.73,0,0,0-131,74.11Z"/></clipPath><clipPath id="clip-path-2"><path class="cls-1" d="M-292.72,213.77a198.55,198.55,0,0,1-1.68,195.71A198.55,198.55,0,0,1-463.2,508.79l-.72-45.86a152.73,152.73,0,0,0,129.8-76.39A152.73,152.73,0,0,0-332.81,236Z"/></clipPath><clipPath id="clip-path-3"><path class="cls-1" d="M-471,508.86a198.55,198.55,0,0,1-168.65-99.31,198.55,198.55,0,0,1-1.6-195.85L-601.13,236a152.73,152.73,0,0,0,1.26,150.6A152.73,152.73,0,0,0-470.2,463Z"/></clipPath><clipPath id="clip-path-4"><path class="cls-4" d="M-637.47,205.84a198.55,198.55,0,0,1,170.33-96.4A198.55,198.55,0,0,1-296.73,206l-39.35,23.55a152.73,152.73,0,0,0-131.06-74.21,152.73,152.73,0,0,0-131,74.11Z"/></clipPath><clipPath id="clip-path-7"><path class="cls-1" d="M225.53,205.84a198.68,198.68,0,0,1,340.74.14l-39.35,23.55a152.83,152.83,0,0,0-262-.11Z"/></clipPath><clipPath id="clip-path-8"><rect class="cls-3" x="-204.02" y="-74.56" width="1200" height="800"/></clipPath><clipPath id="clip-path-9"><path class="cls-4" d="M570.28,213.77a198.68,198.68,0,0,1-170.49,295l-.72-45.86A152.83,152.83,0,0,0,530.19,236Z"/></clipPath><clipPath id="clip-path-10"><rect class="cls-5" x="-204.02" y="-74.56" width="1200" height="800"/></clipPath><clipPath id="clip-path-11"><path class="cls-1" d="M392,508.86A198.67,198.67,0,0,1,221.79,213.7L261.87,236A152.83,152.83,0,0,0,392.8,463Z"/></clipPath><clipPath id="clip-path-13"><path class="cls-1" d="M1084.6,205.84a198.68,198.68,0,0,1,340.74.14L1386,229.52a152.83,152.83,0,0,0-262-.11Z"/></clipPath><clipPath id="clip-path-14"><path class="cls-1" d="M1429.35,213.77a198.68,198.68,0,0,1-170.49,295l-.72-45.86A152.83,152.83,0,0,0,1389.26,236Z"/></clipPath><clipPath id="clip-path-15"><path class="cls-4" d="M1251.11,508.86A198.67,198.67,0,0,1,1080.86,213.7L1120.93,236a152.83,152.83,0,0,0,130.93,227Z"/></clipPath></defs><title>navcircle</title><path class="cls-2" d="M-637.47,205.84a198.55,198.55,0,0,1,170.33-96.4A198.55,198.55,0,0,1-296.73,206l-39.35,23.55a152.73,152.73,0,0,0-131.06-74.21,152.73,152.73,0,0,0-131,74.11Z"/><g class="cls-6"><rect class="cls-3" x="-1067.02" y="-74.56" width="1200" height="800"/></g><path class="cls-2" d="M-292.72,213.77a198.55,198.55,0,0,1-1.68,195.71A198.55,198.55,0,0,1-463.2,508.79l-.72-45.86a152.73,152.73,0,0,0,129.8-76.39A152.73,152.73,0,0,0-332.81,236Z"/><g class="cls-7"><rect class="cls-3" x="-1067.02" y="-74.56" width="1200" height="800"/></g><path class="cls-2" d="M-471,508.86a198.55,198.55,0,0,1-168.65-99.31,198.55,198.55,0,0,1-1.6-195.85L-601.13,236a152.73,152.73,0,0,0,1.26,150.6A152.73,152.73,0,0,0-470.2,463Z"/><g class="cls-8"><rect class="cls-3" x="-1067.02" y="-74.56" width="1200" height="800"/></g><path class="cls-9" d="M-637.47,205.84a198.55,198.55,0,0,1,170.33-96.4A198.55,198.55,0,0,1-296.73,206l-39.35,23.55a152.73,152.73,0,0,0-131.06-74.21,152.73,152.73,0,0,0-131,74.11Z"/><g class="cls-10"><rect class="cls-5" x="-1067.02" y="-74.56" width="1200" height="800"/></g><path class="cls-2" d="M-292.72,213.77a198.55,198.55,0,0,1-1.68,195.71A198.55,198.55,0,0,1-463.2,508.79l-.72-45.86a152.73,152.73,0,0,0,129.8-76.39A152.73,152.73,0,0,0-332.81,236Z"/><g class="cls-7"><rect class="cls-3" x="-1067.02" y="-74.56" width="1200" height="800"/></g><path class="cls-2" d="M-471,508.86a198.55,198.55,0,0,1-168.65-99.31,198.55,198.55,0,0,1-1.6-195.85L-601.13,236a152.73,152.73,0,0,0,1.26,150.6A152.73,152.73,0,0,0-470.2,463Z"/><g class="cls-8"><rect class="cls-3" x="-1067.02" y="-74.56" width="1200" height="800"/></g><path class="cls-2" d="M225.53,205.84a198.68,198.68,0,0,1,340.74.14l-39.35,23.55a152.83,152.83,0,0,0-262-.11Z"/><g class="cls-11"><rect class="cls-3" x="-204.02" y="-74.56" width="1200" height="800"/><g class="cls-12"><rect class="cls-3" x="220.53" y="104.44" width="350.74" height="130.09"/></g></g><path class="cls-9" d="M570.28,213.77a198.68,198.68,0,0,1-170.49,295l-.72-45.86A152.83,152.83,0,0,0,530.19,236Z"/><g class="cls-13"><rect class="cls-5" x="-204.02" y="-74.56" width="1200" height="800"/><g class="cls-14"><rect class="cls-5" x="341.22" y="314.45" width="350.74" height="130.09" transform="translate(-70.36 637.12) rotate(-60)"/></g></g><path class="cls-2" d="M392,508.86A198.67,198.67,0,0,1,221.79,213.7L261.87,236A152.83,152.83,0,0,0,392.8,463Z"/><g class="cls-15"><rect class="cls-3" x="-204.02" y="-74.56" width="1200" height="800"/><g class="cls-12"><rect class="cls-3" x="210.33" y="204.12" width="130.09" height="350.74" transform="translate(-152.85 188.53) rotate(-30)"/></g></g><path class="cls-2" d="M1084.6,205.84a198.68,198.68,0,0,1,340.74.14L1386,229.52a152.83,152.83,0,0,0-262-.11Z"/><g class="cls-16"><rect class="cls-3" x="655.05" y="-74.56" width="1200" height="800"/></g><path class="cls-2" d="M1429.35,213.77a198.68,198.68,0,0,1-170.49,295l-.72-45.86A152.83,152.83,0,0,0,1389.26,236Z"/><g class="cls-17"><rect class="cls-3" x="655.05" y="-74.56" width="1200" height="800"/></g><path class="cls-9" d="M1251.11,508.86A198.67,198.67,0,0,1,1080.86,213.7L1120.93,236a152.83,152.83,0,0,0,130.93,227Z"/><g class="cls-18"><rect class="cls-5" x="655.05" y="-74.56" width="1200" height="800"/></g></svg>